# xmcd
#
# Track frame offsets: 
#        150
#        8605
#        25610
#        37620
#        47502
#        69797
#        88722
#        100355
#        114360
#        133322
#        146360
#        160170
#        194367
#        211315
#        226947
#        244957
#        255412
#
# Disc length: 3521 seconds
#
# Revision: 0
# Processed by: cddbd v1.5.1PL0 Copyright (c) Steve Scherf et al.
# Submitted via: ExactAudioCopy v0.95a5
#
DISCID=d00dbf11
DTITLE=Helge Tallqvist and Deep Blue Divers - Hitsville Hop
DYEAR=1995
DGENRE=Blues
TTITLE0=Fazer In Blue
TTITLE1=The Chicken And The Hawk
TTITLE2=Voodoo Music
TTITLE3=Nobody But You
TTITLE4=Quarter To Twelve
TTITLE5=Next Time You See Me
TTITLE6=Rockin'
TTITLE7=Harlem Nocturne
TTITLE8=Tight Dress
TTITLE9=Have Myself A Ball
TTITLE10=Hitsville Hop
TTITLE11=Last Night
TTITLE12=Be Careful
TTITLE13=Tribute To Little Walter
TTITLE14=Honey, Where Are You Going
TTITLE15=Big 64
TTITLE16=Train From Hitsville (MD)
EXTD=
EXTT0=
EXTT1=
EXTT2=
EXTT3=
EXTT4=
EXTT5=
EXTT6=
EXTT7=
EXTT8=
EXTT9=
EXTT10=
EXTT11=
EXTT12=
EXTT13=
EXTT14=
EXTT15=
EXTT16=
PLAYORDER=
